<svg xmlns="http://www.w3.org/2000/svg" viewBox="0 0 400 500" width="400" height="500">
  <!-- POLISH UPDATE - Created placeholder SVG for missing jersey images -->
  <defs>
    <linearGradient id="grad1" x1="0%" y1="0%" x2="100%" y2="100%">
      <stop offset="0%" style="stop-color:#f3f4f6;stop-opacity:1" />
      <stop offset="100%" style="stop-color:#e5e7eb;stop-opacity:1" />
    </linearGradient>
  </defs>
  <!-- Jersey silhouette -->
  <rect width="400" height="500" fill="url(#grad1)" rx="8"/>
  <!-- Jersey outline -->
  <path d="M 100 50 Q 100 30 120 30 L 280 30 Q 300 30 300 50 L 320 100 L 320 180 L 300 200 L 300 450 L 100 450 L 100 200 L 80 180 L 80 100 Z" 
        fill="none" 
        stroke="#9ca3af" 
        stroke-width="3" 
        stroke-linecap="round"/>
  <!-- Sleeves -->
  <path d="M 80 100 L 50 150 L 50 250 L 80 280 L 80 180 Z" 
        fill="none" 
        stroke="#9ca3af" 
        stroke-width="3"/>
  <path d="M 320 100 L 350 150 L 350 250 L 320 280 L 320 180 Z" 
        fill="none" 
        stroke="#9ca3af" 
        stroke-width="3"/>
  <!-- Center line -->
  <line x1="200" y1="200" x2="200" y2="450" stroke="#d1d5db" stroke-width="2" stroke-dasharray="5,5"/>
  <!-- Text placeholder -->
  <text x="200" y="300" font-family="Arial, sans-serif" font-size="24" fill="#9ca3af" text-anchor="middle">Jersey Image</text>
</svg>

